<mxfile host="app.diagrams.net" modified="2024-02-28T05:51:04.900Z" agent="Mozilla/5.0 (Macintosh; Intel Mac OS X 10_15_7) AppleWebKit/537.36 (KHTML, like Gecko) Chrome/121.0.0.0 Safari/537.36" version="21.6.9" etag="y-RrMYDHe_NWyG_bNQ46" type="github">
  <diagram name="Page-1" id="LLDhv22XxVVfiNqKbbxr">
    <mxGraphModel>
      <root>
        <mxCell id="0" />
        <mxCell id="1" parent="0" />
      </root>
    </mxGraphModel>
  </diagram>
</mxfile>
